# xmcd
#
# Track frame offsets:
#	183
#	14658
#	25800
#	37608
#	49158
#	63208
#	75633
#	92230
#	107958
#	122245
#	136308
#
# Disc length: 1998 seconds
#
# Revision: 1
# Processed by: cddbd v1.5.2PL0 Copyright (c) Steve Scherf et al.
# Submitted via: audiograbber 1.83.01
#
DISCID=8b07cc0b
DTITLE=Bruce Low - Ausgewählte Gold Stücke
DYEAR=1900
DGENRE=Country
TTITLE0=Jesse James
TTITLE1=Hier bin ich zuhaus
TTITLE2=Bergrabt mein Herz in der Prärie
TTITLE3=Das Haus in New Orleans
TTITLE4=Das alte Haus von Rocky-Docky
TTITLE5=Oh, My Darling Clementine
TTITLE6=High Noon
TTITLE7=Rot is der Mond von Virginia
TTITLE8=Ein Kerl wie Old Smokie
TTITLE9=Das hat dir das Leben gegeben
TTITLE10=Whisky ist kein Wasser
EXTD=
EXTT0=
EXTT1=
EXTT2=
EXTT3=
EXTT4=
EXTT5=
EXTT6=
EXTT7=
EXTT8=
EXTT9=
EXTT10=
PLAYORDER=
